<svg t="1764747684104" class="icon" viewBox="0 0 1288 1024" version="1.1" xmlns="http://www.w3.org/2000/svg" p-id="1903" width="200" height="200"><path d="M264.891733 781.533867c-16.896 0-27.0336-8.0896-28.0064-20.736-0.964267-12.637867 10.146133-22.2464 28.0064-22.2464h240.4096c16.896 0 26.5472 8.0896 26.5472 21.239466 0 13.141333-9.6512 21.742933-26.5472 21.742934H264.891733zM219.0336 426.052267c-14.481067-0.512-24.1408-9.105067-24.1408-21.239467s9.173333-21.742933 23.662933-21.742933h119.722667c13.5168 0 23.168 6.0672 24.132267 21.239466 0.964267 15.172267-9.173333 21.239467-25.105067 21.742934h-118.272zM338.747733 472.064c14.481067 0.503467 24.132267 9.096533 23.6544 21.239467-0.4864 12.1344-10.624 21.7344-23.6544 21.7344-39.9104 0.682667-79.982933 0.682667-120.209066 0-13.0304 0-22.690133-6.570667-23.6544-21.7344-0.964267-15.172267 9.173333-20.736 23.6544-21.248h120.209066zM661.7088 806.314667a66.756267 66.756267 0 0 1 6.442667-30.762667 63.470933 63.470933 0 0 1 19.626666-23.8592c12.066133-9.6 23.168-9.096533 30.890667 1.518933 7.7312 10.624 4.829867 22.254933-5.307733 30.848-3.6352 2.3552-6.570667 5.742933-8.448 9.770667a24.746667 24.746667 0 0 0-2.167467 12.987733c0.315733 5.034667 2.346667 9.7792 5.700267 13.397334 3.362133 3.6096 7.850667 5.853867 12.637866 6.314666 10.624 2.030933 18.346667-3.5328 23.176534-13.141333 3.131733-6.2464 2.602667-7.150933 2.107733-7.9872-0.256-0.452267-0.512-0.887467-0.1792-2.133333 2.901333-13.141333 9.659733-21.230933 23.168-19.208534 13.5168 2.0224 17.8688 12.637867 17.3824 25.787734-1.553067 16.5888-8.9344 31.982933-20.7104 43.1872-11.776 11.2128-27.101867 17.450667-43.008 17.493333-16.110933-0.512-31.428267-7.441067-42.820267-19.370667-11.392-11.938133-18.005333-27.9808-18.491733-44.8512zM129.723733 828.049067c2.884267-0.512 5.8368-0.3584 8.661334 0.443733 2.824533 0.802133 5.4528 2.244267 7.697066 4.206933 2.244267 1.962667 4.053333 4.411733 5.307734 7.185067a22.075733 22.075733 0 0 1 0.2048 17.749333c-1.194667 2.798933-2.944 5.2992-5.1456 7.3216a20.1984 20.1984 0 0 1-7.594667 4.394667 19.421867 19.421867 0 0 1-8.644267 0.6656 20.053333 20.053333 0 0 1-12.373333-7.0144 21.819733 21.819733 0 0 1-5.034667-13.755733c-0.059733-5.0688 1.621333-9.984 4.718934-13.8752 3.106133-3.8912 7.424-6.485333 12.202666-7.3216z" fill="#000000" p-id="1904"></path><path d="M668.151467 775.552a66.756267 66.756267 0 0 0-6.442667 30.754133c0.4864 16.8704 7.099733 32.913067 18.491733 44.8512 11.392 11.9296 26.709333 18.858667 42.811734 19.370667 15.914667-0.042667 31.249067-6.280533 43.016533-17.493333 11.776-11.2128 19.157333-26.5984 20.7104-43.1872 0.4864-13.141333-3.8656-23.765333-17.3824-25.787734-13.5168-2.0224-20.2752 6.0672-23.168 19.217067-0.341333 1.237333-0.085333 1.672533 0.1792 2.1248 0.494933 0.836267 1.024 1.7408-2.107733 7.9872-4.829867 9.608533-12.552533 15.172267-23.176534 13.141333a19.9168 19.9168 0 0 1-12.629333-6.314666 21.7088 21.7088 0 0 1-5.717333-13.397334 24.746667 24.746667 0 0 1 2.176-12.987733c1.877333-4.027733 4.8128-7.415467 8.448-9.770667 10.1376-8.593067 13.038933-20.224 5.307733-30.848-7.722667-10.615467-18.824533-11.118933-30.890667-1.5104a63.470933 63.470933 0 0 0-19.626666 23.850667z m-538.427734 52.497067c2.884267-0.512 5.8368-0.3584 8.661334 0.443733 2.824533 0.802133 5.4528 2.244267 7.697066 4.206933 2.244267 1.962667 4.053333 4.411733 5.307734 7.185067a22.075733 22.075733 0 0 1 0.2048 17.749333c-1.194667 2.798933-2.944 5.2992-5.1456 7.3216a20.1984 20.1984 0 0 1-7.594667 4.394667 19.421867 19.421867 0 0 1-8.644267 0.6656 20.053333 20.053333 0 0 1-12.373333-7.0144 21.819733 21.819733 0 0 1-5.034667-13.755733c-0.059733-5.0688 1.621333-9.984 4.718934-13.8752 3.106133-3.8912 7.424-6.485333 12.202666-7.3216z" fill="#000000" p-id="1905"></path><path d="M550.007467 294.570667h35.310933c4.829867-0.324267 34.6624-0.162133 39.458133 0.512 0 0-20.437333-74.154667-47.232-114.3552-39.210667-58.845867-55.432533-115.797333-139.1872-115.797334H38.766933c-32.128 0-32.887467 45.0048 0 45.0048 0 0 380.1344-1.5616 406.7584 2.517334 65.237333 9.984 103.765333 155.972267 104.482134 182.126933zM970.0352 818.363733c-4.224 12.194133-7.8592 25.6512-11.690667 39.620267 72.064 61.124267 158.856533 71.313067 249.0368 70.9376 26.0352-0.375467 37.7344-15.8464 30.1824-36.983467-7.918933-21.879467 0.384-29.806933 15.854934-39.236266 10.939733-6.792533 24.900267-14.72 13.585066-31.317334-10.948267-15.854933-27.5456-14.336-37.7344-3.0208-29.056 32.452267-45.661867 12.450133-63.394133-12.458666 7.543467-7.543467 15.470933-14.711467 23.0144-22.638934 9.813333-10.939733 29.431467-19.9936 13.2096-38.109866-13.585067-15.086933-31.317333-7.543467-41.506133 4.906666-26.410667 33.211733-46.788267 22.272-69.051734-8.302933 7.168-6.033067 15.470933-10.1888 20.753067-16.597333 11.3152-16.2304 54.715733-20.002133 29.806933-49.4336-23.773867-28.296533-42.641067 4.906667-58.112 20.002133-12.450133 12.450133-19.618133 15.8464-30.557866 1.1264-21.512533-29.047467-49.809067-43.767467-86.792534-43.767467 10.0864 15.812267 16.725333 30.242133 20.718934 43.844267 6.5536 2.798933 12.6464 7.68 18.1504 13.883733 24.5248 27.170133 49.0496 54.340267 75.4688 79.240534 29.806933 27.9296 61.883733 53.589333 92.817066 80.375466-4.1472 4.5312-7.918933 9.429333-12.074666 13.960534-69.896533-3.003733-135.978667-19.3024-191.684267-66.030934z" fill="#000000" p-id="1906"></path><path d="M863.9744 850.295467a154.709333 154.709333 0 0 1-36.974933 64.298666 145.032533 145.032533 0 0 1-61.696 38.178134c-23.2704 7.176533-47.880533 8.174933-71.611734 2.901333a143.7696 143.7696 0 0 1-64.3328-33.066667 134.468267 134.468267 0 0 1-33.3056-42.478933 15.9744 15.9744 0 0 0-6.656-7.722667 14.890667 14.890667 0 0 0-9.762133-1.885866H245.085867c-9.173333 0-12.544 3.037867-15.445334 11.630933-6.289067 21.5552-18.824533 40.533333-35.857066 54.306133a100.932267 100.932267 0 0 1-59.246934 22.5536 103.492267 103.492267 0 0 1-60.040533-17.092266c-17.954133-11.784533-32.170667-28.893867-40.8576-49.143467a113.493333 113.493333 0 0 1-6.724267-65.732267c4.3264-22.101333 15.112533-42.257067 30.865067-57.6512 3.242667-2.688 5.819733-6.1696 7.509333-10.129066 1.672533-3.968 2.414933-8.2944 2.141867-12.629334-0.477867-44.4928-0.477867-88.490667-0.477867-132.48 0-30.336 8.209067-42.9824 35.242667-52.078933 8.004267-2.517333 7.714133-7.1168 7.381333-12.373333a51.703467 51.703467 0 0 1-0.145066-3.3024V352.221867c0-42.9824 13.994667-57.642667 54.5536-57.642667h104.1664l108.356266 0.494933 2.304 0.008534-2.304-0.008534c-3.285333-0.0256-7.850667-0.128 2.304-0.494933h206.506667c4.829867-0.341333 34.6624-0.170667 39.458133 0.512 4.864 0.375467 26.069333 2.670933 29.380267 6.4256 3.310933 3.754667 5.1456 8.6784 5.137067 13.789867 0.2816 5.128533-1.3056 10.171733-4.445867 14.114133-3.140267 3.950933-7.594667 6.493867-12.458667 7.125333-5.751467 0.8448-11.562667 1.186133-17.373866 1.015467H168.814933c-13.994667 0-19.310933 2.525867-18.833066 18.705067 0.964267 61.184 0.964267 121.864533 0 183.048533 0 15.675733 1.450667 24.277333 19.797333 22.2464 18.346667-2.0224 23.6544 9.608533 22.690133 22.254933-0.964267 12.637867-10.1376 20.224-22.698666 20.224-3.797333 0-8.362667 0.042667-13.3376 0.093867h-0.017067c-11.400533 0.119467-24.9344 0.256-36.360533-0.093867-8.686933-0.512-12.552533 1.518933-12.066134 11.630934 0.477867 38.434133 0.477867 76.356267 0 114.2784-0.4864 10.112 2.4064 11.630933 11.579734 10.615466a99.165867 99.165867 0 0 1 67.9168 16.64c20.096 13.661867 35.003733 34.2528 42.154666 58.197334 2.901333 8.6016 5.794133 13.149867 15.931734 13.149866h320.546133c9.659733 0 12.066133-2.525867 11.101867-13.141333-8.209067-99.114667 80.622933-181.538133 173.789866-162.321067 4.241067 0.853333 8.814933 2.9184 13.312 4.949334 8.797867 3.976533 17.297067 7.825067 22.417067 2.133333 4.8384-5.393067 3.797333-14.3616 2.705067-23.790933-0.648533-5.6064-1.314133-11.383467-0.768-16.6656 1.442133-14.165333-4.8384-15.675733-16.418134-15.675734-41.924267 0-83.968-0.128-126.08-0.256H645.973333c-42.1888-0.119467-84.437333-0.256-126.685866-0.256H271.163733c-23.168 0-33.792-6.058667-34.2784-20.727466-0.477867-14.660267 11.1104-22.2464 34.7648-22.2464H731.221333c11.588267 0 14.967467-2.0224 14.967467-15.172267-0.725333-45.5168-0.64-90.752-0.546133-135.9104v-0.0512c0.017067-7.611733-0.085333-10.504533-0.2048-13.4656-0.1024-2.875733-0.213333-5.819733-0.213334-13.226667-1.834667-3.84-7.159467-3.84-12.654933-3.822933-3.1744 0-6.417067 0.017067-9.070933-0.725333-7.2448-2.0224-19.797333-8.6016-19.310934-22.254934 0.477867-13.653333 9.173333-19.217067 21.248-20.224h7.714134c9.659733 1.518933 13.038933-1.518933 13.038933-12.637866-0.554667-17.92-0.477867-35.84-0.401067-53.751467 0.059733-13.44 0.119467-26.88-0.085333-40.302933 0.4864-8.0128-7.236267-11.1616-27.0336-11.1616-22.289067-2.9696-25.130667-42.9824 3.3792-42.9824h1.390933c29.6704 0 50.423467-0.008533 60.398934 29.3632 2.414933 9.105067 4.829867 10.112 12.552533 6.0672a72.900267 72.900267 0 0 1 37.1712-8.0896h222.549333c20.2752 0 31.3856 12.1344 26.555734 27.306666-1.928533 5.060267-4.343467 11.127467-8.686934 11.630934-15.035733 2.184533-16.341333 13.0816-17.672533 24.157866-0.2048 1.732267-0.418133 3.464533-0.674133 5.1712l-50.688 274.4064c-6.280533 38.4256-29.448533 58.658133-66.619734 58.658134-12.962133 0-24.8064 0.059733-36.104533 0.119466h-0.008533c-21.111467 0.110933-40.3456 0.2048-61.405867-0.119466-9.173333 0-11.101867 2.525867-12.066133 12.1344a38.442667 38.442667 0 0 0 3.396266 20.565333c2.9952 6.357333 7.68 11.690667 13.499734 15.3344 19.1232 14.404267 38.971733 34.858667 58.6496 55.133867 9.275733 9.557333 21.1456-8.849067 32.785066-26.9056 10.811733-16.750933 21.418667-33.194667 29.568-26.709334 10.0864 15.812267 16.725333 30.242133 20.718934 43.844267a30.702933 30.702933 0 0 0-23.7312-0.452267c-10.2144 3.985067-22.4512 15.658667-26.555734 23.1936-3.328 6.1184-20.548267 22.306133-20.292266 29.371734 0.699733 19.114667 39.133867 57.258667 53.256533 69.316266-4.224 12.194133-7.8592 25.6512-11.690667 39.620267L845.943467 704.622933c-2.210133-2.133333-4.983467-4.821333-9.480534-0.964266 17.860267 24.772267 30.890667 51.575467 33.792 82.926933 0.059733 27.562667-1.467733 41.352533-6.280533 63.709867z m-77.2352-302.890667c0 11.127467 2.901333 13.653333 13.5168 13.653333h130.824533c26.555733 0 31.863467-5.563733 35.720534-33.365333 1.450667-9.617067-0.477867-12.6464-10.1376-12.142933-25.745067 0.682667-51.328 0.682667-76.757334 0-32.341333 0-48.759467-16.682667-48.759466-50.056534V320.529067c0-22.2464 6.280533-28.817067 28.0064-28.817067h119.722666c30.8992 0 30.8992 0 36.8896-30.429867l0.2816-1.4336c2.414933-12.629333-0.4864-14.660267-12.066133-14.660266H835.976533c-32.341333 0-48.759467 17.698133-49.237333 51.575466V398.250667c0 16.494933 0.0512 32.9984 0.1024 49.5104v0.017066c0.110933 33.092267 0.221867 66.2528-0.1024 99.6352zM723.968 693.034667c-21.0944 0-41.728 6.5536-59.272533 18.833066-17.544533 12.288-31.214933 29.730133-39.296 50.1504a116.6848 116.6848 0 0 0-6.0672 64.571734 113.476267 113.476267 0 0 0 29.201066 57.216c14.916267 15.624533 33.928533 26.274133 54.621867 30.583466a102.229333 102.229333 0 0 0 61.6448-6.357333c19.490133-8.456533 36.155733-22.784 47.872-41.156267a115.575467 115.575467 0 0 0 17.988267-62.088533c0.964267-60.672-47.786667-111.752533-106.692267-111.752533z m148.206933-311.9872c0 26.2912 0 52.5824-0.477866 78.882133 0 9.096533 1.442133 12.637867 11.579733 12.637867 27.0336-1.006933 54.075733-0.503467 81.109333 0 7.722667 0 11.579733-2.0224 12.544-10.615467 4.317867-27.921067 8.635733-44.1856 13.090134-60.987733 4.0192-15.146667 8.149333-30.72 12.501333-55.6544 1.450667-10.112-1.928533-11.127467-9.659733-11.127467h-110.549334c-8.686933 0-10.615467 3.037867-10.615466 11.630933 0.187733 10.0096 0.298667 13.6704 0.366933 15.914667 0.110933 3.5328 0.110933 3.5328 0.110933 19.319467z m-741.504 534.980266a62.216533 62.216533 0 0 0 35.6352-11.648 66.798933 66.798933 0 0 0 23.424-30.455466 70.229333 70.229333 0 0 0 3.285334-38.946134 68.215467 68.215467 0 0 0-17.954134-34.286933 63.274667 63.274667 0 0 0-33.1264-18.0224 61.533867 61.533867 0 0 0-37.111466 4.3264 65.066667 65.066667 0 0 0-28.526934 25.216 69.614933 69.614933 0 0 0-10.325333 37.5808c0.256 17.749333 7.202133 34.670933 19.319467 47.0784 12.117333 12.407467 28.433067 19.293867 45.371733 19.157333z" fill="#000000" p-id="1907"></path></svg>